<?xml version="1.0" encoding="iso-8859-1"?>
<!-- Generator: Adobe Illustrator 19.0.0, SVG Export Plug-In . SVG Version: 6.00 Build 0)  -->
<svg version="1.1" id="Capa_1" xmlns="http://www.w3.org/2000/svg" xmlns:xlink="http://www.w3.org/1999/xlink" x="0px" y="0px"
	 viewBox="0 0 512 512" style="enable-background:new 0 0 512 512;" xml:space="preserve">
<path style="fill:#FF98C5;" d="M147.759,503.37h66.559c-0.05-17.624,4.721-31.422,10.298-47.544
	c11.57-33.45,25.971-75.08-9.384-146.48l-59.666,29.543c22.988,46.429,16.281,65.82,6.128,95.172
	C155.24,452.717,147.699,474.549,147.759,503.37z"/>
<path style="fill:#B8B8B8;" d="M334.712,243.902c56.572,25.584,83.072-48.11,151.083-35.505l-5.055-46.804l-136.533-6.254
	l-38.965,29.471L334.712,243.902z"/>
<path style="fill:#D2D2D2;" d="M447.283,186.839c-24.471-7.621-57.914-8.614-101.642,8.911L314.205,81.427
	c38.739-10.796,73.012-15.416,101.683-13.797C460.62,114.646,447.498,185.701,447.283,186.839z"/>
<path style="fill:#3A484A;" d="M415.888,67.63c74.191,4.179,110.922,50.078,90.539,138.66c-1.793,7.836-11.462,10.786-17.249,5.214
	c-8.768-8.44-22.525-18.622-41.894-24.655c0,0,0,0,0-0.01L415.888,67.63z"/>
<path style="fill:#EB5E8A;" d="M215.233,309.345l-59.666,29.543c9.632,19.453,14.037,34.152,15.174,46.833
	c0.789,0.009,1.576,0.03,2.367,0.03c21.782,0,43.114-3.415,63.394-10.037C234.2,356.76,227.92,334.97,215.233,309.345z"/>
<path style="fill:#FF98C5;" d="M334.712,243.902c-24.973,64.9-87.906,110.942-161.604,110.942C77.498,354.846,0,277.346,0,181.737
	S77.498,8.63,173.107,8.63c58.211,0,109.713,28.732,141.098,72.798L334.712,243.902z"/>
<path style="fill:#EFEDEE;" d="M346.215,181.737c0,21.91-4.076,42.877-11.503,62.165c-57.248,44.762-161.267,52.219-196.769-39.968
	c-35.512-92.188,70.318-187.786,176.262-122.507c0,0.01,0.01,0.01,0.01,0.01C334.364,109.729,346.215,144.351,346.215,181.737z"/>
<path style="fill:#3A484A;" d="M244.673,167.493c-1.064,0-2.144-0.22-3.176-0.687c-3.889-1.756-5.617-6.334-3.86-10.222
	c3.799-8.409,11.211-14.817,20.336-17.58c9.123-2.763,18.845-1.543,26.672,3.347c3.619,2.261,4.719,7.028,2.458,10.647
	c-2.26,3.619-7.028,4.719-10.646,2.458c-4.043-2.527-9.148-3.133-14.006-1.663c-4.856,1.47-8.768,4.807-10.731,9.152
	C250.428,165.802,247.615,167.493,244.673,167.493z"/>
<g>
</g>
<g>
</g>
<g>
</g>
<g>
</g>
<g>
</g>
<g>
</g>
<g>
</g>
<g>
</g>
<g>
</g>
<g>
</g>
<g>
</g>
<g>
</g>
<g>
</g>
<g>
</g>
<g>
</g>
</svg>
